<svg width="52" height="52" viewBox="0 0 52 52" fill="none" xmlns="http://www.w3.org/2000/svg">
<path d="M30.0729 21.4442H37.9589M14.0409 28.7832H37.9599M14.0409 36.1232H37.9599M14.0409 43.4622H37.9599M24.0729 23.2442H12.5469V20.8802C12.5469 18.1802 14.7349 15.9922 17.4349 15.9922H19.1849C21.8849 15.9922 24.0729 18.1802 24.0729 20.8802V23.2442Z" stroke="white" stroke-width="2" stroke-miterlimit="10" stroke-linecap="round" stroke-linejoin="round"/>
<path d="M18.3105 13C19.9674 13 21.3105 11.6569 21.3105 10C21.3105 8.34315 19.9674 7 18.3105 7C16.6537 7 15.3105 8.34315 15.3105 10C15.3105 11.6569 16.6537 13 18.3105 13Z" stroke="white" stroke-width="2" stroke-miterlimit="10" stroke-linecap="round" stroke-linejoin="round"/>
<path d="M26.3228 14.575H37.9598M33.6498 2H9.20078C8.63057 2 8.0837 2.22652 7.6805 2.62972C7.2773 3.03292 7.05078 3.57978 7.05078 4.15V47.85C7.05078 48.1324 7.10643 48.4121 7.21454 48.673C7.32265 48.9339 7.4811 49.171 7.68086 49.3706C7.88061 49.5703 8.11774 49.7286 8.3787 49.8366C8.63967 49.9446 8.91935 50.0001 9.20178 50H42.7978C43.368 50 43.9149 49.7735 44.3181 49.3703C44.7213 48.9671 44.9478 48.4202 44.9478 47.85V13.3C44.9476 12.7298 44.721 12.1831 44.3178 11.78L35.1688 2.63C34.7659 2.22701 34.2196 2.00041 33.6498 2Z" stroke="white" stroke-width="2" stroke-miterlimit="10" stroke-linecap="round" stroke-linejoin="round"/>
</svg>
